<?xml version="1.0" encoding="UTF-8" standalone="no"?>
<!-- Created with Inkscape (http://www.inkscape.org/) -->

<svg
   version="1.1"
   id="svg1"
   width="649.8299"
   height="590.10803"
   viewBox="0 0 649.8299 590.10803"
   sodipodi:docname="hexagon-purple.png"
   xml:space="preserve"
   xmlns:inkscape="http://www.inkscape.org/namespaces/inkscape"
   xmlns:sodipodi="http://sodipodi.sourceforge.net/DTD/sodipodi-0.dtd"
   xmlns="http://www.w3.org/2000/svg"
   xmlns:svg="http://www.w3.org/2000/svg"><defs
     id="defs1" /><sodipodi:namedview
     id="namedview1"
     pagecolor="#505050"
     bordercolor="#eeeeee"
     borderopacity="1"
     inkscape:showpageshadow="0"
     inkscape:pageopacity="0"
     inkscape:pagecheckerboard="0"
     inkscape:deskcolor="#505050"><inkscape:page
       x="0"
       y="0"
       width="649.8299"
       height="590.10803"
       id="page2"
       margin="0"
       bleed="0" /></sodipodi:namedview><g
     inkscape:groupmode="layer"
     inkscape:label="Image"
     id="g1"
     transform="translate(-13.952438,-46.045254)"><path
       style="fill:#673ab7;fill-opacity:1;stroke-width:1.1343"
       d="M 201.25483,633.44559 C 171.59431,626.08319 148.08435,604.24754 135.40375,576.83656 95.168132,508.29466 54.280408,440.0203 17.236327,369.69641 11.027202,340.78807 12.510305,308.92478 31.436972,284.79334 70.904785,216.66071 107.86861,146.91989 150.81338,80.896968 c 17.96951,-25.695004 50.14409,-36.007035 80.44786,-33.848811 79.36796,-0.211081 158.84329,-2.514892 238.15151,0.668214 30.4638,3.419652 55.96804,24.597126 69.6988,51.393764 41.6121,69.726815 82.29894,140.074595 120.9384,211.489465 6.49009,27.68675 5.68634,58.85541 -11.86428,82.53153 -39.19696,69.12611 -77.21663,139.06952 -119.67593,206.24588 -21.62307,30.2638 -59.7125,38.61039 -94.77866,36.01681 -77.44887,0.48438 -155.12886,2.18689 -232.47625,-1.94823 z"
       id="path3"
       inkscape:export-filename="..\..\dev\kempo-server\docs\media\hexagon.svg"
       inkscape:export-xdpi="96"
       inkscape:export-ydpi="96" /><path
       id="path1"
       style="fill:#ffffff;fill-opacity:1;stroke-width:0.423233"
       d="m 353.19249,105.37155 c -10.0632,0.1717 -20.05607,2.74781 -29.00402,7.34099 -6.75106,3.42199 -12.92882,7.88085 -18.65532,12.80929 -0.88209,0.73333 -1.8156,1.51642 -2.67403,2.20835 -0.66904,0.52914 -1.2731,1.01159 -1.96075,1.51521 -0.8202,0.60251 -1.66303,1.1745 -2.53197,1.70451 -0.17562,0.099 -0.47857,0.28764 -0.70926,0.41075 -2.60488,1.50677 -5.57734,2.23759 -8.54483,2.58825 -0.4953,0.0596 -1.09737,0.1242 -1.63584,0.17061 -1.70855,0.15469 -3.4154,0.24477 -5.14773,0.29859 -9.55368,0.32318 -19.20427,-0.10573 -28.76692,0.71195 -5.97002,0.50369 -11.9659,1.69446 -17.39858,4.29664 -5.95001,2.82963 -11.12251,7.00372 -16.03297,11.33957 -7.02397,6.20542 -13.57141,12.92334 -20.61198,19.1093 -0.39654,0.27604 -0.90307,0.33244 -1.34533,0.51805 -4.96082,1.64833 -10.0502,2.99835 -15.09673,4.42554 -6.83345,1.92332 -13.68576,3.829 -20.33638,6.32817 -5.0364,1.92995 -9.79664,4.5369 -14.25266,7.56606 -5.97749,4.06976 -11.26884,9.15518 -15.50644,15.01894 -5.31514,7.322 -9.00354,15.70507 -11.66396,24.31987 -2.6792,8.7249 -4.38538,17.71571 -5.71361,26.73488 -0.79357,5.35046 -1.44394,10.72184 -1.92708,16.10925 -0.88478,9.71752 -1.37141,19.46542 -1.87227,29.20842 -0.68092,13.84298 -1.31039,27.69243 -2.08616,41.52309 -0.45135,8.45497 -0.51274,16.92425 -0.54343,25.38941 -0.0174,9.84561 0.0291,19.69561 0.47253,29.53263 0.37507,6.57122 1.27615,13.19232 3.6149,19.37837 1.99194,5.33916 5.08712,10.22688 8.84387,14.49689 2.97948,3.41844 6.29422,6.55725 9.94366,9.25325 5.35899,3.92822 11.45414,6.81598 17.84033,8.62754 4.10897,1.18729 8.31855,2.05778 12.57778,2.47318 7.36716,0.60702 14.80083,-0.7388 21.70628,-3.29098 2.96014,-1.07859 5.83454,-2.37507 8.68701,-3.7084 5.14939,3.11229 10.36284,6.20874 16.03137,8.29125 5.98239,2.26304 12.22994,3.76685 18.53377,4.80619 7.20703,1.14605 14.59994,1.31253 21.81558,0.14475 2.1928,-0.32596 4.37751,-0.7086 6.57608,-0.99818 0.10178,2.5347 0.0795,5.13603 0.1514,7.7024 0.10066,4.36786 0.29771,8.77335 1.31679,13.03872 0.64199,2.60028 1.69834,5.08098 2.98771,7.42332 4.98819,9.44879 12.6881,17.38257 21.79779,22.92878 6.06867,3.76952 12.51998,6.86947 19.00574,9.84475 6.72764,3.04348 13.60011,5.75132 20.4803,8.42688 5.34774,2.2163 10.59368,4.66723 15.93679,6.8943 5.5026,2.31303 11.03566,4.55366 16.53597,6.87252 8.30432,3.45807 16.61771,6.91953 25.13367,9.83032 4.31213,1.44402 8.75791,2.56023 13.29782,2.95573 3.65448,0.35271 7.35055,0.29984 10.98925,-0.19753 5.03285,-0.6176 10.13727,-1.17132 15.10247,-2.32613 4.9952,-1.15001 9.8264,-2.90088 14.5961,-4.75688 4.9674,-1.96457 9.8722,-4.08341 14.7794,-6.19318 8.0251,-3.47983 16.0203,-6.98802 24.0736,-10.39888 8.5279,-3.62802 17.1094,-7.15958 25.5438,-11.01385 8.3985,-3.81163 16.7251,-7.78354 24.943,-11.97203 3.2393,-1.66679 6.4781,-3.35226 9.5487,-5.31791 4.7948,-3.13919 9.115,-6.94126 13.2295,-10.91494 3.7694,-3.70033 7.3408,-7.63331 10.3556,-11.97965 2.2747,-3.37759 3.8237,-7.17494 5.1762,-10.99715 1.3424,-3.87964 2.3905,-7.85995 3.1833,-11.88677 0.5519,-2.94651 0.7207,-5.94687 0.7618,-8.93933 0.058,-3.77676 0.031,-7.55429 0.03,-11.33135 -0.024,-5.89207 -0.2245,-11.8038 -1.1477,-17.63218 -0.7111,-4.8197 -1.5703,-9.61751 -2.5554,-14.38858 -1.9129,-9.05437 -4.5298,-17.94954 -7.5932,-26.67788 -1.3327,-3.84948 -2.6997,-7.68777 -3.9481,-11.56589 -2.4057,-7.57179 -4.6336,-15.28096 -6.6437,-22.9979 -1.3307,-5.07501 -2.5852,-10.21727 -3.6395,-15.37664 -0.1242,-0.62872 -0.2681,-1.32641 -0.383,-1.95417 -0.4637,-2.39116 -0.7832,-4.80827 -0.9647,-7.23708 -0.5198,-6.13157 -0.8102,-12.26782 -1.0943,-18.42593 -0.747,-16.94755 -1.009,-33.92517 -2.4349,-50.83562 -0.5961,-6.72377 -1.4353,-13.45328 -3.1031,-20.00489 -0.9947,-3.94558 -2.3313,-7.79819 -3.8912,-11.5544 -1.4094,-3.40338 -2.8884,-6.79219 -3.8889,-10.3453 -0.8827,-3.03302 -1.354,-6.16029 -2.0219,-9.24295 -1.866,-9.04396 -4.0986,-18.07649 -7.7951,-26.56794 -2.3881,-5.54529 -5.1541,-10.94156 -8.459,-15.99931 -2.843,-4.31941 -6.1706,-8.31047 -9.8295,-11.96074 -3.4874,-3.54674 -7.2562,-6.86362 -11.5261,-9.44279 -3.4019,-2.09197 -6.9866,-3.88095 -10.6697,-5.42109 -4.4146,-1.81656 -9.0568,-3.10703 -13.8014,-3.67509 -9.231,-1.19003 -18.5671,-0.33942 -27.8027,0.12426 -3.381,0.17408 -6.7638,0.31123 -10.1478,0.41107 -2.5291,0.0476 -5.1466,0.11553 -7.7068,-0.0315 -0.7201,-0.0429 -1.5214,-0.13883 -2.1813,-0.24793 -2.19705,-0.34226 -4.2705,-1.17615 -6.32272,-1.99837 -3.59616,-1.48657 -7.10316,-3.1769 -10.63724,-4.80304 -5.62407,-2.61483 -11.27221,-5.24623 -17.21374,-7.06892 -5.60641,-1.67466 -11.3957,-2.72231 -17.22446,-3.20798 -2.31341,-0.17621 -4.63432,-0.24844 -6.9543,-0.21557 z m 3.47184,18.51977 c 1.11398,0.01 2.24727,0.0369 3.32439,0.0999 0.46191,0.0208 0.90738,0.059 1.39781,0.0931 7.86892,0.61579 15.65018,2.63527 22.747,6.10844 2.91589,1.43345 5.70538,3.12964 8.2932,5.0961 0.43138,0.32989 0.93535,0.72947 1.38312,1.10143 0.79733,0.66277 1.56909,1.35623 2.31521,2.07613 0.31903,0.31541 0.71651,0.70774 1.05308,1.06614 1.11894,1.19764 2.21018,2.4385 3.09328,3.82337 0.90369,1.47107 1.41168,3.14012 1.76753,4.81802 0.48064,1.95183 1.39628,3.92608 3.08952,5.10686 2.01976,1.39011 4.96485,1.11109 6.73163,-0.57325 1.8589,-1.49881 2.9137,-3.69529 4.4024,-5.51444 0.1585,-0.18485 0.406,-0.47728 0.612,-0.69337 2.4476,-2.62715 5.6426,-4.40616 8.9079,-5.8169 2.2454,-0.97651 4.652,-1.77525 6.9962,-2.29744 0.8405,-0.18819 1.7687,-0.35485 2.5683,-0.47531 2.543,-0.3745 5.1268,-0.45508 7.6893,-0.25873 0.4205,0.0334 0.9258,0.0779 1.3771,0.12812 0.263,0.0318 0.6621,0.0771 0.9771,0.1235 3.2999,0.47228 6.5118,1.20811 9.7265,2.11399 6.3148,1.80196 12.4176,4.37195 18.0697,7.72089 0.5599,0.33614 1.2002,0.72224 1.7818,1.09317 3.8942,2.48611 7.5899,5.33741 10.7282,8.74191 4.0294,4.39013 6.8078,9.76159 8.9862,15.26667 1.6753,4.27683 3.0144,8.67537 4.6131,12.98026 1.7935,4.95646 3.4127,10.00999 5.1996,14.98336 2.6475,7.48016 5.4268,14.91925 7.7517,22.50907 0.4013,1.33398 0.821,2.73484 1.1891,4.0786 1.1732,4.22644 2.1438,8.51074 2.8573,12.83916 0.5551,3.43079 0.9974,6.95391 1.272,10.44667 0.05,0.61436 0.091,1.29536 0.139,1.94696 0.032,0.5885 0.074,1.27522 0.1029,1.90273 0.3682,8.65505 0,17.31692 -0.1844,25.97166 -0.073,2.61755 -0.1785,5.28145 -0.3191,7.89025 -0.2753,5.2083 -0.817,10.45846 -1.117,15.69153 -0.3396,6.05535 -0.03,12.15371 1.0465,18.12551 1.2776,7.18658 3.4797,14.17079 5.3672,21.19839 1.0934,4.00648 2.2912,7.98392 3.5785,11.93257 2.5574,7.8948 5.2302,15.75284 7.7605,23.65709 2.2297,6.90555 4.4026,13.8508 6.4204,20.79518 1.5516,5.32574 2.9987,10.65523 4.2521,16.0577 0.4356,1.88476 0.8646,3.88497 1.235,5.79467 0.4223,2.20073 0.7971,4.44241 1.0798,6.63488 0.3519,2.69512 0.5778,5.4073 0.6528,8.12456 0.015,0.68443 0.03,1.45893 0.024,2.17931 0,0.84555 -0.023,1.6909 -0.056,2.53577 -0.024,0.43168 -0.046,0.97815 -0.084,1.45322 -0.1041,1.38682 -0.2921,2.76649 -0.544,4.13396 -0.052,0.25904 -0.1107,0.58564 -0.1718,0.87319 -0.6278,2.98178 -1.4467,5.92112 -2.3484,8.83074 -1.2542,4.01918 -2.9343,7.89437 -5.2083,11.4482 -1.992,3.12243 -4.3799,5.99301 -7.097,8.51058 -0.5328,0.49046 -1.1376,1.03705 -1.715,1.53032 -1.7246,1.4818 -3.5399,2.85604 -5.4122,4.14531 -0.5952,0.40417 -1.2658,0.85631 -1.9018,1.26235 -4.1927,2.71399 -8.6634,4.95768 -13.1264,7.18539 -9.509,4.70254 -19.1976,9.03099 -28.9501,13.20164 -13.1225,5.6691 -26.085,11.6948 -39.0324,17.74913 -7.2318,3.3613 -14.4599,6.71644 -21.8231,9.76481 -0.9584,0.39324 -1.8553,0.75442 -2.8272,1.12273 -2.0524,0.78335 -4.1873,1.51171 -6.2739,2.07999 -1.1394,0.30997 -2.28953,0.58135 -3.44955,0.80182 2.11797,-2.58646 3.67005,-5.57915 4.96485,-8.64639 1.9947,-4.78429 3.2388,-9.85659 3.9878,-14.9773 0.859,-6.0763 0.8391,-12.29987 -0.3244,-18.33497 -0.5904,-3.2403 -1.3306,-6.46007 -2.3445,-9.59549 -0.6376,-1.92865 -1.5115,-3.91135 -3.17304,-5.17473 -1.39518,-1.09026 -3.3234,-1.567 -5.02702,-0.98222 -2.14611,0.70531 -3.70696,2.90992 -3.58253,5.17808 0.0343,1.48365 0.38657,2.93435 0.54444,4.40605 0.19701,1.43081 0.35246,2.85233 0.47531,4.27032 0.22958,2.64729 0.32911,5.36767 0.27649,8.05301 -0.0457,2.489 -0.23674,5.01603 -0.56374,7.52223 -0.0835,0.62575 -0.16617,1.18484 -0.26204,1.80867 -0.10212,0.64245 -0.22804,1.37575 -0.35677,2.05065 -1.10278,5.94005 -3.04111,11.69319 -5.3792,17.25358 -0.62901,1.517 -1.33684,3.0725 -1.95176,4.62323 -0.40427,1.08194 -0.87228,2.20364 -0.74387,3.38433 -1.55822,-0.0592 -3.08519,-0.43771 -4.53391,-1.00217 -3.03739,-1.09948 -6.04309,-2.28349 -9.05321,-3.45485 -6.58578,-2.59006 -13.07539,-5.47076 -19.21083,-9.01186 -4.56753,-2.60117 -8.95578,-5.37144 -13.35437,-8.26431 -1.3671,-0.90269 -2.73179,-1.80917 -4.09011,-2.72508 0.48509,-9.19203 0.85581,-18.39314 0.8546,-27.59943 -0.004,-2.74256 -0.009,-5.48958 -0.20735,-8.2258 -0.20993,-2.05668 -0.82723,-4.06502 -1.79486,-5.89094 -1.33542,-2.81156 -3.28932,-5.38369 -5.88348,-7.14296 -3.14105,-2.2696 -6.75724,-3.73473 -10.30424,-5.23524 -3.23924,-1.33237 -6.51191,-2.58217 -9.79377,-3.80512 6.01384,0.0457 12.03341,0.0282 18.03873,-0.3245 1.83606,-0.117 3.67763,-0.26952 5.47122,-0.69967 2.44509,-0.57495 4.85838,-1.27901 7.26105,-2.00919 5.26181,-1.63106 10.43746,-3.53371 15.5346,-5.62091 2.73825,-1.15148 5.43558,-2.39996 8.0832,-3.7468 3.10623,1.25504 6.26979,2.36916 9.49004,3.29466 7.02226,2.12718 14.11449,4.02382 21.2559,5.70666 3.60134,0.76972 7.29915,0.83938 10.96442,0.99547 6.4331,0.20509 12.8704,0.2678 19.3063,0.33821 4.5448,0.0279 9.0937,0.0772 13.6346,-0.14356 3.6846,-0.19141 7.3683,-0.67321 10.9215,-1.69089 3.0818,-0.85432 6.1083,-1.89431 9.1279,-2.94425 4.1011,-1.45303 8.1439,-3.17184 11.7741,-5.59722 4.7914,-3.17226 8.7664,-7.47793 11.861,-12.3 2.6052,-4.04303 4.7225,-8.38263 6.5601,-12.82155 1.6068,-3.87538 1.7814,-8.136 2.9923,-12.12497 1.8081,-6.54703 3.5948,-13.11064 4.7802,-19.80476 1.9423,-11.11294 3.7244,-22.26087 4.9296,-33.48074 0.5086,-4.83712 0.9619,-9.68349 1.1881,-14.54296 0.2677,-5.76845 0.1826,-11.54984 -0.1722,-17.31262 -0.7932,-13.54819 -2.9156,-27.02238 -6.3863,-40.14372 -0.8848,-2.96343 -1.792,-5.95279 -3.2617,-8.68749 -1.0641,-1.78414 -3.1667,-3.00735 -5.2693,-2.71979 -2.4101,0.25968 -4.4916,2.42608 -4.5256,4.87305 -0.1171,1.33773 0.01,2.69641 0.027,4.00711 0.2063,5.51229 0.5864,11.05188 0.7743,16.54277 0.3863,12.31359 0.2895,24.63823 -0.1072,36.95023 -0.1431,4.12021 -0.2642,8.26351 -0.5202,12.38705 -0.2304,2.8368 -0.6739,5.65129 -1.1097,8.46238 -1.4207,8.76923 -3.0578,17.49253 -4.809,26.20639 -0.9396,3.63864 -1.9588,7.25601 -2.9445,10.88232 -1.4859,5.37898 -2.9853,10.758 -4.7461,16.05472 -0.6107,1.79454 -1.2826,3.60277 -1.9885,5.30751 -1.9758,4.74942 -4.3385,9.41414 -7.6911,13.35201 -2.3938,2.8305 -5.3412,5.18242 -8.6228,6.90527 -1.8677,0.97424 -3.807,1.8327 -5.8271,2.43797 -1.5272,0.42214 -3.1276,0.41968 -4.6989,0.49838 -3.9889,0.13728 -7.9805,0.18474 -11.9712,0.23688 -5.0816,0.0524 -10.1649,0.0841 -15.2453,-0.0637 -0.8379,-0.0295 -1.7601,-0.0647 -2.6306,-0.10761 -3.4609,-0.16737 -6.9461,-0.44653 -10.38486,-1.03859 -0.81823,-0.13528 -1.63447,-0.28937 -2.41529,-0.44836 -4.00449,-0.81925 -8.00211,-2.02801 -11.78699,-3.64841 -1.39163,-0.60763 -2.82676,-1.30087 -4.10726,-2.0297 -2.46558,-1.42665 -4.85662,-3.14912 -6.48076,-5.53014 -0.0972,-1.54456 0.0315,-3.09851 0.11636,-4.64318 0.17385,-2.75305 0.18496,-5.51316 0.28067,-8.26954 0.11331,-4.28913 0.23966,-8.57559 0.48166,-12.86814 0.59109,-10.59901 1.58515,-21.23452 2.60151,-31.82538 1.6329,-16.92322 2.92614,-33.88483 3.55576,-50.87761 0.66948,-16.72754 1.24996,-33.45867 1.96822,-50.18422 0.21533,-4.66445 0.43531,-9.33226 0.75333,-13.97396 0.0699,-1.61691 0.55151,-3.19951 0.48416,-4.82355 -0.0642,-1.62421 -0.76175,-3.27521 -2.10293,-4.24728 -1.80565,-1.37075 -4.56073,-1.41336 -6.31075,0.078 -1.47463,1.11655 -2.17773,2.89709 -2.82588,4.56518 -2.09667,5.48332 -3.02798,11.30727 -4.07949,17.05588 -2.00329,11.51327 -3.42447,23.11852 -4.68989,34.73335 -1.64016,15.29647 -2.935,30.62802 -4.10789,45.96706 -0.85662,11.28143 -1.62529,22.56857 -2.38379,33.85707 -0.30699,4.36198 -0.6315,8.79173 -1.00435,13.13511 -0.31716,3.49056 -0.651,6.96699 -1.10465,10.45705 -0.5633,4.19193 -1.21282,8.43037 -2.5926,12.4612 -1.19278,3.48141 -2.99915,6.78746 -5.53669,9.47333 -2.05057,2.20756 -4.39595,4.19093 -6.80594,5.94494 -1.24686,0.9073 -2.54507,1.7868 -3.82665,2.58362 -3.23594,2.02601 -6.62664,3.8025 -10.12353,5.33382 -1.13508,0.48965 -2.37775,1.0068 -3.58432,1.4547 -2.41812,0.90815 -4.8433,1.6766 -7.36013,2.2697 -1.62702,0.39447 -3.29541,0.5936 -4.96648,0.66416 -0.43149,0.0189 -0.97615,0.0316 -1.45221,0.0301 -5.46861,-0.0214 -10.84531,-1.20715 -16.12929,-2.51189 -1.43114,-0.35502 -2.82638,-0.68844 -4.24312,-1.11738 -0.19493,-0.0603 -0.53409,-0.16826 -0.78447,-0.24716 -0.75613,-0.25567 -1.46965,-0.51266 -2.18071,-0.82415 -3.31482,-1.42348 -6.46343,-3.39052 -8.87461,-6.10382 -0.72183,-0.82996 -1.34385,-1.8084 -1.45102,-2.92867 -0.12378,-0.72314 -0.22453,-1.53585 -0.29565,-2.21048 -0.30237,-3.14811 -0.42438,-6.30989 -0.52573,-9.46985 -0.0177,-0.84226 -0.0401,-1.77064 -0.0595,-2.64603 -0.27871,-12.92179 -0.27973,-25.84732 -0.29636,-38.77149 0.0214,-9.3648 0.26753,-18.72707 0.45891,-28.08944 0.69922,-31.68503 1.64071,-63.42842 -0.47663,-95.08141 -0.12553,-1.57608 -0.16815,-3.16266 -0.38689,-4.72896 -0.401,-1.61476 -1.3434,-3.16885 -2.79566,-4.03478 -1.47394,-0.87133 -3.37269,-0.941 -4.90608,-0.17916 -1.70986,0.80772 -2.83243,2.46963 -3.51981,4.17674 -0.67383,1.72361 -0.99637,3.55628 -1.37862,5.35974 -0.91168,4.71347 -1.48423,9.4846 -1.99857,14.25538 -1.03654,10.19214 -1.28836,20.44113 -1.5697,30.67572 -0.59703,26.28457 -0.63029,52.57716 -0.90646,78.86602 -0.10752,10.15952 -0.21894,20.31973 -0.49209,30.47638 -0.12085,4.13631 -0.28635,8.31239 -0.60533,12.45495 -0.22029,2.41139 -0.45553,4.85872 -1.31794,7.14128 -1.28335,3.48538 -2.81744,6.98289 -5.35569,9.752 -2.14949,2.35086 -5.09774,3.83655 -8.15448,4.62095 -0.87789,0.23936 -1.80377,0.43833 -2.65736,0.58895 -2.10491,0.37707 -4.26609,0.5661 -6.36988,0.68019 -6.7877,0.35503 -13.68075,-0.37364 -20.2372,-2.24073 -4.24462,-1.245 -8.45186,-2.88128 -12.04134,-5.51617 -2.88597,-2.15376 -5.52227,-4.67815 -7.62831,-7.60748 -0.85769,-1.25362 -1.71373,-2.60799 -1.85889,-4.15717 -0.0648,-0.45076 -0.11702,-1.04362 -0.14998,-1.55718 -0.0555,-0.82085 -0.0802,-1.75791 -0.13026,-2.6296 -0.49884,-11.54822 -0.64945,-23.1161 -0.73664,-34.68057 -0.15233,-26.65888 0.0434,-53.31988 0.59179,-79.97356 0.10135,-4.44319 0.2159,-8.88607 0.3447,-13.32855 0.15443,-4.37873 0.30058,-8.83417 0.56221,-13.20649 0.11603,-2.3509 0.35455,-4.69265 0.62871,-7.02968 0.37002,-3.3391 0.75624,-6.70063 0.56319,-10.06469 -0.17089,-1.79884 -1.00385,-3.62545 -2.56585,-4.62168 -1.90486,-1.26365 -4.60648,-1.0381 -6.32633,0.44732 -1.27586,1.07379 -1.83119,2.71354 -2.35147,4.24185 -1.95796,6.37919 -3.55022,12.86858 -4.87842,19.40716 -1.0962,5.84632 -1.42418,11.79763 -1.78391,17.72428 -0.60576,10.97476 -0.94597,21.96334 -1.2886,32.94854 -0.7232,24.0641 -1.20462,48.13459 -1.86708,72.20031 -0.14549,4.87882 -0.31696,9.75967 -0.56706,14.64205 -0.11932,2.11121 -0.22887,4.27345 -0.41331,6.39976 -0.0486,0.49693 -0.10078,1.10151 -0.16276,1.63918 -0.21097,1.68581 -0.37475,3.41031 -1.00196,5.0036 -0.36797,0.9066 -1.03787,1.72494 -1.9773,2.06905 -1.42387,0.56737 -2.9855,0.40305 -4.48247,0.44159 -3.07313,3.8e-4 -6.14451,-0.1185 -9.2164,-0.19112 -2.6928,-0.0927 -5.44202,-0.15349 -8.13898,-0.4778 -0.32311,-0.0427 -0.5775,-0.08 -0.91866,-0.14339 -1.83702,-0.3151 -3.5799,-1.00537 -5.25815,-1.79738 -2.79042,-1.29703 -5.57717,-2.70071 -7.92793,-4.71623 -1.9566,-1.62856 -3.61362,-3.61235 -4.85495,-5.83584 -2.11971,-3.68721 -3.34417,-7.80172 -4.3491,-11.91023 -1.0029,-4.21121 -1.74518,-8.49067 -2.38895,-12.74029 -1.0219,-6.91444 -1.69932,-13.96153 -2.07255,-20.93686 -0.1257,-2.31381 -0.21936,-4.62311 -0.27659,-6.92152 -0.20477,-7.90922 -0.001,-15.79103 0.42382,-23.6843 0.71412,-13.27516 1.99391,-26.56597 2.9339,-39.85139 0.87705,-12.31079 1.47591,-24.62641 2.7514,-36.89698 0.6189,-6.04426 1.50248,-12.10305 3.0032,-18.01391 0.53047,-2.15655 1.12472,-4.34985 1.73078,-6.45287 1.40053,-4.73806 2.97872,-9.43048 4.89306,-13.98742 1.31827,-3.04547 2.67302,-6.15491 4.88204,-8.67722 1.93458,-2.33968 4.02783,-4.54542 6.22594,-6.63848 0.71815,-0.67837 1.52232,-1.42081 2.2634,-2.07884 2.4257,-2.17062 4.97259,-4.22653 7.77814,-5.88995 5.48508,-3.32948 11.46954,-5.87551 17.72732,-7.32406 0.4723,-0.10814 0.87209,-0.19083 1.34993,-0.28909 0.55422,-0.11143 1.20763,-0.23127 1.8036,-0.32536 0.72818,-0.11878 1.47874,-0.22318 2.17239,-0.29848 0.51934,-0.0615 1.06489,-0.10941 1.62239,-0.15166 2.13238,-0.13085 4.31566,-0.24035 6.40572,0.28958 1.15124,0.28344 2.20547,0.91682 2.97952,1.81706 1.66155,1.84132 2.40912,4.25798 3.64692,6.36476 0.86467,1.44589 2.14556,2.79578 3.8443,3.18008 2.12889,0.52151 4.60616,-0.3809 5.70094,-2.32633 0.77244,-1.31288 1.00526,-2.84269 1.45786,-4.27733 1.16266,-4.17917 2.32168,-8.34161 3.84934,-12.39419 2.36542,-6.29582 5.35185,-12.42692 9.51561,-17.74188 3.46176,-4.42857 7.73769,-8.28389 12.72687,-10.91458 0.17027,-0.0887 0.43756,-0.22908 0.62585,-0.32131 1.4556,-0.73656 3.04694,-1.40932 4.62285,-1.96653 1.55697,-0.55407 3.22895,-1.03999 4.87175,-1.42615 1.83003,-0.40791 3.67146,-0.83161 5.55076,-0.91925 0.18469,-0.008 0.51816,-0.0164 0.76429,-0.0116 1.67206,0.0634 3.336,0.2704 4.99807,0.45731 5.02307,0.63757 10.02935,1.40122 15.0298,2.19534 4.66066,0.75349 9.34929,1.55795 14.00245,2.4339 0.89574,0.17461 1.79089,0.35281 2.68138,0.55271 -0.10793,2.49115 -0.35158,4.97284 -0.59282,7.45371 -0.14478,1.66864 -0.28679,3.34652 -0.21439,5.02184 0.17502,2.05301 1.60523,3.98626 3.59935,4.59628 2.20724,0.73424 4.81136,-0.13738 6.16329,-2.02346 1.61378,-2.00371 2.40286,-4.49759 3.23171,-6.89343 0.55471,-1.72125 1.28286,-3.43471 2.05797,-5.09877 0.32522,-0.7068 0.63426,-1.38977 0.96228,-2.06718 0.47097,-0.98905 0.95332,-1.96839 1.43984,-2.91979 1.55336,-3.03773 3.19176,-6.03553 4.98862,-8.93667 0.36331,-0.58012 0.7465,-1.16136 1.1113,-1.69351 0.43698,-0.6387 0.8834,-1.23902 1.34102,-1.83163 2.62567,-3.38745 5.77948,-6.35307 9.26296,-8.84471 0.19801,-0.13598 0.4785,-0.34033 0.68204,-0.47825 5.97372,-4.11319 12.81528,-6.88241 19.87876,-8.45661 2.67881,-0.59194 5.45428,-0.96093 8.1612,-1.13182 1.25852,-0.0782 2.51944,-0.10852 3.78017,-0.11903 z m -74.1948,328.44731 c -2.32148,2.4429 -3.81101,5.53362 -4.94977,8.67159 -1.29635,3.65472 -2.2049,7.43383 -3.0024,11.22451 -0.18915,-0.88005 -0.32449,-1.86772 -0.39678,-2.7039 -0.37984,-4.42809 0.59907,-9.02264 3.06337,-12.75233 0.83249,-1.24926 1.78517,-2.44411 2.95458,-3.39405 0.73152,-0.55232 1.57922,-0.9428 2.46242,-1.18139 -0.0438,0.0452 -0.0876,0.0904 -0.13142,0.13557 z m 12.79454,9.56078 c 1.9961,0.37731 3.90492,1.095 5.83327,1.71616 6.37089,2.16138 12.63723,4.62182 18.83558,7.23409 1.57886,0.674 3.13885,1.35807 4.67721,2.07573 1.08555,0.52289 2.19204,1.01358 3.23627,1.61436 0.52436,0.32185 0.55155,0.98729 0.7159,1.51731 0.50576,2.47572 0.54785,5.017 0.45877,7.53389 -0.0596,1.68974 -0.14569,3.49471 -0.26347,5.18519 -0.35335,5.22726 -0.87256,10.44651 -1.66175,15.62681 -0.0643,0.36657 -0.14324,0.85485 -0.21603,1.26783 0.0251,0.37826 -0.39366,0.0467 -0.60746,0.0429 -1.88917,-0.55887 -3.75938,-1.19118 -5.60829,-1.8046 -4.12039,-1.38672 -8.19698,-2.90084 -12.24505,-4.48567 -4.09366,-1.61561 -8.21002,-3.31849 -12.23238,-5.15412 -2.5006,-1.14165 -5.04659,-2.34323 -7.49042,-3.66207 -0.85902,-0.46498 -1.69057,-0.94123 -2.51348,-1.49517 -0.085,-2.99651 0.23654,-5.99203 0.72661,-8.94478 0.39528,-2.28622 0.91134,-4.55125 1.54083,-6.7843 0.10087,-0.33697 0.23244,-0.79548 0.34635,-1.17877 0.78014,-2.52785 1.69953,-5.03993 3.06392,-7.31662 0.79392,-1.25841 1.83587,-2.50182 3.29863,-2.97158 0.035,-0.005 0.07,-0.0113 0.10499,-0.0166 z" /></g></svg>
