<?xml version="1.0" encoding="UTF-8" standalone="no"?>
<!-- Created with Inkscape (http://www.inkscape.org/) -->

<svg
   version="1.1"
   id="svg1"
   width="47.758545"
   height="43.36935"
   viewBox="0 0 47.758545 43.36935"
   xml:space="preserve"
   xmlns="http://www.w3.org/2000/svg"
   xmlns:svg="http://www.w3.org/2000/svg"><defs
     id="defs1" /><g
     id="g1"
     transform="translate(-0.20861354,-1.2175899)"><path
       style="fill:#673ab7;fill-opacity:1;stroke-width:0.0833644"
       d="M 13.9742,44.387935 C 11.794332,43.846845 10.066491,42.242061 9.1345454,40.227527 6.177473,35.190109 3.1724735,30.172351 0.44995936,25.003977 -0.00637352,22.879393 0.10262555,20.537632 1.4936205,18.764116 4.3942643,13.756788 7.1108808,8.6312609 10.267059,3.7789768 c 1.32065,-1.8884255 3.685286,-2.646297 5.912427,-2.4876813 5.833063,-0.015511 11.674015,-0.1848278 17.502682,0.049111 2.238913,0.2513257 4.113316,1.8077392 5.122445,3.7771283 3.058236,5.1244982 6.048468,10.2946312 8.888231,15.5431912 0.476988,2.034808 0.417916,4.325511 -0.871949,6.065561 -2.880737,5.080352 -5.674954,10.220759 -8.795458,15.157822 -1.589163,2.224205 -4.3885,2.837623 -6.965651,2.647015 -5.69202,0.03559 -11.401026,0.160747 -17.085586,-0.143204 z"
       id="path3" /><path
       id="path1"
       style="fill:#ffffff;fill-opacity:1;stroke-width:0.0306602"
       d="m 25.115594,5.3231442 c -1.272624,0.013448 -2.494888,0.5448279 -3.472766,1.3404899 -0.382976,0.286489 -0.72504,0.7141167 -1.240273,0.735549 -1.204835,0.1106546 -2.454323,-0.092208 -3.622659,0.2994144 -1.028748,0.3634692 -1.7791,1.1960247 -2.562304,1.9153802 -0.178497,0.1508894 -0.331135,0.3479987 -0.532547,0.4625663 -1.042509,0.342932 -2.146459,0.529671 -3.126221,1.042784 -1.0055011,0.526085 -1.8289092,1.38368 -2.3056367,2.414262 -0.6169264,1.310369 -0.8189264,2.765536 -0.969047,4.192198 -0.1469094,1.761465 -0.1959037,3.529266 -0.2972177,5.2937 -0.050217,1.351994 -0.052841,2.707095 0.00817,4.058718 0.048981,0.892169 0.318118,1.792617 0.8994452,2.485755 0.6461531,0.812964 1.559796,1.409195 2.5742632,1.642407 0.814275,0.22688 1.692935,0.1991 2.488374,-0.08907 0.179483,-0.06044 0.355222,-0.131845 0.527733,-0.209885 0.946553,0.58906 2.055348,0.887688 3.163021,0.948532 0.313335,0.01181 0.628137,-5.03e-4 0.938514,-0.04617 0.0026,0.618027 0.08832,1.25628 0.422573,1.790002 0.494941,0.902705 1.309191,1.591581 2.220152,2.051555 0.868557,0.467006 1.79311,0.813601 2.703518,1.187367 0.357785,0.15693 0.765465,0.337921 1.14763,0.494026 1.033121,0.416005 2.046896,0.891399 3.116349,1.208717 0.670841,0.199433 1.381326,0.178105 2.065425,0.06592 1.20291,-0.126452 2.294245,-0.68461 3.394029,-1.146333 1.856442,-0.810222 3.750192,-1.548633 5.524949,-2.532123 0.73025,-0.44431 1.358129,-1.047752 1.888915,-1.714228 0.481558,-0.619033 0.701737,-1.397331 0.844364,-2.156627 0.07879,-0.642055 0.04526,-1.292307 0.03699,-1.937588 -0.03944,-0.921079 -0.230001,-1.829739 -0.458526,-2.72047 -0.287316,-1.051344 -0.708316,-2.060844 -0.981887,-3.1166 -0.155435,-0.558765 -0.323571,-1.201262 -0.4334,-1.773184 -0.1266,-0.791936 -0.123186,-1.598085 -0.165606,-2.397487 -0.06416,-1.386066 -0.06196,-2.782383 -0.290615,-4.154397 C 38.516982,14.291656 38.250797,13.669123 38.002776,13.046801 37.819464,12.435108 37.748115,11.795087 37.557222,11.184564 37.199846,9.9675404 36.595029,8.7929499 35.658094,7.9203835 35.015752,7.2861828 34.184737,6.8532361 33.312282,6.6356363 32.043821,6.35291 30.746056,6.6597948 29.465839,6.5853796 28.980285,6.4708321 28.546232,6.2054147 28.08907,6.0129641 27.164532,5.5603901 26.147951,5.3046847 25.115594,5.3231442 Z m 0.491695,2.3543315 c 0.90726,0.062368 1.856125,0.3863902 2.458263,1.0974879 0.150879,0.2139747 0.135362,0.5089278 0.315555,0.7116085 0.29339,0.4425223 0.984241,0.5031539 1.355273,0.1256462 0.242037,-0.2148412 0.360135,-0.5579364 0.680488,-0.6841463 0.507759,-0.2817511 1.117249,-0.3349078 1.674192,-0.1823011 0.868296,0.2072643 1.731841,0.6005346 2.333724,1.2771941 0.495907,0.615654 0.6535,1.410584 0.932961,2.132366 0.443669,1.348678 1.048637,2.66883 1.168006,4.100497 0.01727,0.183804 0.02878,0.35828 0.03227,0.516194 0.01727,0.554095 -0.0045,1.108314 -0.01666,1.662287 -0.110941,-0.393833 -0.201524,-0.826977 -0.490221,-1.133696 -0.351842,-0.357311 -1.000177,-0.323995 -1.299481,0.08318 -0.302194,0.363705 -0.163049,0.862741 -0.166381,1.292453 0.0758,1.350307 0.06026,2.712313 2.51e-4,4.048824 -0.04408,0.772705 -0.223093,1.530304 -0.357119,2.290804 -0.132814,0.683358 -0.341675,1.336802 -0.534358,2.009935 -0.207401,0.635412 -0.444957,1.335684 -1.020441,1.732088 -0.236302,0.157353 -0.50924,0.266536 -0.797584,0.24221 -0.920264,0.0073 -1.84964,0.06889 -2.76249,-0.07704 -0.462869,-0.09329 -0.939899,-0.22709 -1.316498,-0.523759 0.03676,-1.041195 0.06629,-2.083371 0.172119,-3.120621 0.172917,-1.758373 0.315942,-3.520407 0.364731,-5.287217 0.05802,-1.320592 0.08554,-2.643235 0.17658,-3.961932 0.104021,-0.417204 -0.06252,-0.912731 -0.469982,-1.098205 -0.438723,-0.226591 -1.012219,0.0018 -1.203889,0.449697 -0.326062,0.721042 -0.395887,1.52203 -0.528725,2.293622 -0.37758,2.670961 -0.538064,5.37512 -0.729104,8.05743 -0.06288,0.658196 -0.08505,1.363524 -0.281457,2.012948 -0.194736,0.58533 -0.760444,0.926535 -1.268881,1.213461 -0.532805,0.269163 -1.123089,0.536219 -1.735075,0.430506 -0.424055,-0.06795 -0.856167,-0.14435 -1.252799,-0.313794 -0.167249,-0.09676 -0.418276,-0.195058 -0.393716,-0.426873 -0.07111,-1.266087 -0.04916,-2.535606 -0.05445,-3.80325 0.02986,-3.043963 0.210333,-6.095177 -0.03814,-9.134499 -0.08957,-0.465145 -0.559771,-0.832151 -1.036437,-0.736804 -0.479111,0.07316 -0.770586,0.542942 -0.837642,0.990838 -0.315122,1.581036 -0.278071,3.20233 -0.320342,4.806401 -0.03934,2.368467 -0.01618,4.738254 -0.09776,7.105807 -0.01097,0.372897 -0.04036,0.7575 -0.239477,1.08427 -0.167123,0.377172 -0.617227,0.434011 -0.980615,0.454055 -0.696754,0.03601 -1.435379,-0.06341 -2.035972,-0.438804 -0.19933,-0.155863 -0.421816,-0.326088 -0.522041,-0.56276 -0.07751,-1.527432 -0.06843,-3.078846 -0.0684,-4.623997 0.0046,-1.609782 0.02603,-3.245763 0.06938,-4.838541 0.01167,-0.626955 0.06121,-1.25167 0.124114,-1.875064 0.04428,-0.389993 -0.03482,-0.841175 -0.382979,-1.075094 -0.434556,-0.327471 -1.128075,-0.127997 -1.32821,0.376751 -0.226328,0.599278 -0.361505,1.231002 -0.481869,1.859199 -0.155834,1.224593 -0.152109,2.462573 -0.203904,3.694283 -0.05904,1.935794 -0.09059,3.88463 -0.156593,5.808039 -0.0166,0.331835 -0.02327,0.665059 -0.06783,0.994665 -0.448571,-0.01302 -0.866056,0.0051 -1.309061,-0.06138 C 10.260037,28.535483 9.830301,28.288892 9.6752677,27.850039 9.3887966,27.078705 9.3074798,26.249465 9.2271028,25.435847 c -0.1875134,-2.171254 0.1410831,-4.337989 0.2542,-6.5037 0.085062,-1.211478 0.1369136,-2.444802 0.5337582,-3.604206 0.176918,-0.505776 0.326104,-1.056595 0.729926,-1.435294 0.478925,-0.527352 1.085586,-0.942969 1.773756,-1.141241 0.300231,-0.08847 0.615973,-0.150207 0.92982,-0.123119 0.157948,0.312997 0.325464,0.66948 0.680313,0.798202 0.456737,0.180758 1.025412,-0.08618 1.157904,-0.564167 0.251041,-0.900065 0.516838,-1.858693 1.206743,-2.531387 0.396948,-0.3875395 0.946204,-0.6191853 1.497745,-0.644313 0.699345,0.06966 1.392908,0.1903551 2.085082,0.3107858 -0.04455,0.3682202 -0.0699,0.7969362 0.221041,1.0776972 0.371743,0.416259 1.109662,0.332148 1.398326,-0.139225 0.245939,-0.354082 0.306771,-0.796642 0.525163,-1.1667665 0.272256,-0.5539997 0.58824,-1.1190889 1.117508,-1.4670274 0.657098,-0.4538157 1.472201,-0.676384 2.268898,-0.6246168 z M 37.044925,23.64154 c 0.47062,1.501038 1.005342,2.98343 1.395504,4.508739 0.03547,0.142236 0.09494,0.386879 0.121514,0.525274 0.157263,0.747778 0.243088,1.544898 -0.01606,2.281028 -0.163231,0.667682 -0.570764,1.26548 -1.137593,1.655461 -0.718807,0.510991 -1.542117,0.846762 -2.336226,1.220407 -1.388131,0.600045 -2.765079,1.225312 -4.134265,1.867478 -0.290046,0.130633 -0.606173,0.286593 -0.886131,0.391126 0.267173,-0.887687 0.286319,-1.846775 0.03332,-2.740078 -0.09277,-0.427096 -0.302454,-0.895611 -0.751193,-1.041336 -0.488967,-0.185679 -1.075725,0.166805 -1.150185,0.681929 -0.04376,0.371152 0.08842,0.738432 0.07858,1.111593 0.03565,0.798414 -0.1766,1.585994 -0.503482,2.308648 -0.843579,-0.305481 -1.664766,-0.679381 -2.413237,-1.177682 -0.117503,-0.07367 -0.243906,-0.155838 -0.372861,-0.241391 0.03068,-0.818745 0.08359,-1.641716 0.021,-2.459583 -0.06533,-0.411329 -0.276168,-0.799271 -0.576557,-1.086896 0.698757,-0.18474 1.382891,-0.42998 2.037015,-0.737787 0.736459,0.255116 1.491574,0.460537 2.253456,0.623608 0.818943,0.09219 1.646283,0.06626 2.469254,0.08076 0.666263,0.01333 1.342627,-0.03351 1.97162,-0.270384 0.720277,-0.220033 1.434931,-0.553762 1.929173,-1.141155 0.430439,-0.501755 0.744173,-1.101783 0.951971,-1.727088 0.09579,-0.484789 0.226638,-0.960894 0.352041,-1.438796 0.24224,-1.034041 0.383668,-2.089165 0.513282,-3.142377 0.01575,-0.142742 0.02757,-0.285858 0.04195,-0.42873 0.03606,0.125756 0.07201,0.251493 0.108064,0.377241 z M 21.19089,32.252314 c 0.570289,0.196888 1.133162,0.416507 1.681874,0.667539 0.01964,0.418425 -0.02826,0.837194 -0.06632,1.253549 -0.686572,-0.241633 -1.366681,-0.507582 -2.016383,-0.837009 0.04188,-0.384155 0.124628,-0.768927 0.283917,-1.122396 0.03896,0.01242 0.07794,0.02544 0.116903,0.03829 z" /></g></svg>
