<?xml version="1.0" encoding="UTF-8" standalone="no"?>
<!-- Created with Inkscape (http://www.inkscape.org/) -->

<svg
   version="1.1"
   id="svg1"
   width="512"
   height="511.99997"
   viewBox="0 0 512 511.99999"
   xmlns="http://www.w3.org/2000/svg"
   xmlns:svg="http://www.w3.org/2000/svg">
  <defs
     id="defs1" />
  <g
     id="g1">
    <path
       id="path1"
       style="fill:#000000;stroke-width:0.423233"
       d="m 267.86802,29.637334 c -10.0632,0.171695 -20.05607,2.747811 -29.00402,7.340983 -6.75106,3.421997 -12.92882,7.88085 -18.65532,12.809296 -0.88209,0.733325 -1.8156,1.51642 -2.67403,2.208349 -0.66904,0.52914 -1.2731,1.01159 -1.96075,1.515208 -0.8202,0.60251 -1.66303,1.174499 -2.53197,1.704508 -0.17562,0.09905 -0.47857,0.287645 -0.70926,0.41075 -2.60488,1.506768 -5.57734,2.237595 -8.54483,2.588254 -0.4953,0.0596 -1.09737,0.1242 -1.63584,0.170608 -1.70855,0.154691 -3.4154,0.244768 -5.14773,0.298589 -9.55368,0.323178 -19.20427,-0.10573 -28.76692,0.711955 -5.97002,0.503688 -11.9659,1.694454 -17.39858,4.296641 -5.95001,2.829621 -11.12251,7.003727 -16.03297,11.339579 -7.02397,6.205421 -13.57141,12.923332 -20.61198,19.109295 -0.39654,0.276041 -0.90307,0.332441 -1.34533,0.518052 -4.96082,1.648329 -10.0502,2.998345 -15.096729,4.425539 -6.833451,1.92332 -13.685755,3.829 -20.33638,6.32817 -5.036399,1.92995 -9.796642,4.5369 -14.252662,7.56606 -5.977487,4.06976 -11.26884,9.15518 -15.50644,15.01894 -5.315134,7.322 -9.003531,15.70507 -11.663959,24.31987 -2.679199,8.7249 -4.38538,17.71571 -5.713604,26.73488 -0.793576,5.35046 -1.443947,10.72184 -1.927082,16.10925 -0.884777,9.71752 -1.371413,19.46542 -1.87227,29.20842 -0.680924,13.84298 -1.310389,27.69243 -2.086165,41.52309 -0.451344,8.45497 -0.512735,16.92425 -0.543423,25.38941 -0.01739,9.84561 0.02908,19.69561 0.472531,29.53263 0.375065,6.57122 1.276142,13.19232 3.614897,19.37837 1.991935,5.33916 5.08712,10.22688 8.843866,14.49689 2.979482,3.41844 6.29422,6.55725 9.943662,9.25325 5.358995,3.92822 11.454143,6.81598 17.840331,8.62754 4.108971,1.18729 8.31855,2.05778 12.577779,2.47318 7.367164,0.60702 14.800827,-0.7388 21.706277,-3.29098 2.960141,-1.07859 5.834541,-2.37507 8.687011,-3.7084 5.14939,3.11229 10.36284,6.20874 16.03137,8.29125 5.98239,2.26304 12.22994,3.76685 18.53377,4.80619 7.20703,1.14605 14.59994,1.31253 21.81558,0.14475 2.1928,-0.32596 4.37751,-0.7086 6.57608,-0.99818 0.10178,2.5347 0.0795,5.13603 0.1514,7.7024 0.10066,4.36786 0.29771,8.77335 1.31679,13.03872 0.64199,2.60028 1.69834,5.08098 2.98771,7.42332 4.98819,9.44879 12.6881,17.38257 21.79779,22.92878 6.06867,3.76952 12.51998,6.86947 19.00574,9.84475 6.72764,3.04348 13.60011,5.75132 20.4803,8.42688 5.34774,2.2163 10.59368,4.66723 15.93679,6.8943 5.5026,2.31303 11.03566,4.55366 16.53597,6.87252 8.30432,3.45807 16.61771,6.91953 25.13367,9.83032 4.31213,1.44402 8.75791,2.56023 13.29782,2.95573 3.65448,0.35271 7.35055,0.29984 10.98925,-0.19753 5.03285,-0.6176 10.13728,-1.17132 15.10249,-2.32613 4.99518,-1.15001 9.82641,-2.90088 14.59607,-4.75688 4.96741,-1.96457 9.87226,-4.08341 14.7794,-6.19318 8.02513,-3.47983 16.02031,-6.98802 24.0736,-10.39888 8.52796,-3.62802 17.10945,-7.15958 25.54386,-11.01385 8.3985,-3.81163 16.72509,-7.78354 24.94291,-11.97203 3.23931,-1.66679 6.47814,-3.35226 9.54871,-5.31791 4.79488,-3.13919 9.11507,-6.94126 13.22957,-10.91494 3.7694,-3.70033 7.34077,-7.63331 10.3556,-11.97965 2.27464,-3.37759 3.82366,-7.17494 5.17621,-10.99715 1.34238,-3.87964 2.39048,-7.85995 3.18325,-11.88677 0.5519,-2.94651 0.7207,-5.94687 0.76183,-8.93933 0.058,-3.77676 0.0307,-7.55429 0.0299,-11.33135 -0.0237,-5.89207 -0.22448,-11.8038 -1.14771,-17.63218 -0.71108,-4.8197 -1.5703,-9.61751 -2.55546,-14.38858 -1.91289,-9.05437 -4.52973,-17.94954 -7.59315,-26.67788 -1.33275,-3.84948 -2.69971,-7.68777 -3.94812,-11.56589 -2.40566,-7.57179 -4.6336,-15.28096 -6.64366,-22.9979 -1.33073,-5.07501 -2.58524,-10.21727 -3.63956,-15.37664 -0.12413,-0.62872 -0.26803,-1.32641 -0.38294,-1.95417 -0.46369,-2.39116 -0.78323,-4.80827 -0.96476,-7.23708 -0.51973,-6.13157 -0.81015,-12.26782 -1.09424,-18.42593 -0.74705,-16.94755 -1.00904,-33.92517 -2.43494,-50.83562 -0.59613,-6.72377 -1.43528,-13.45328 -3.10312,-20.00489 -0.9947,-3.94558 -2.33131,-7.79819 -3.89114,-11.5544 -1.40947,-3.40338 -2.88839,-6.79219 -3.88894,-10.3453 -0.88265,-3.03302 -1.35403,-6.16029 -2.02187,-9.24295 -1.86606,-9.04396 -4.09858,-18.07649 -7.79513,-26.567945 -2.38806,-5.545286 -5.15405,-10.941556 -8.45903,-15.999304 -2.84291,-4.319412 -6.17056,-8.31048 -9.82947,-11.960748 -3.48735,-3.546742 -7.25622,-6.863626 -11.52605,-9.442795 -3.40193,-2.09197 -6.98664,-3.880951 -10.66976,-5.421092 -4.41458,-1.816552 -9.05682,-3.107029 -13.80139,-3.67509 -9.231,-1.190021 -18.5671,-0.339413 -27.80273,0.124262 -3.38096,0.174078 -6.76379,0.311234 -10.14775,0.411076 -2.52913,0.04762 -5.14658,0.11553 -7.70679,-0.03147 -0.72015,-0.04289 -1.52144,-0.13883 -2.18134,-0.247933 -2.19703,-0.342257 -4.27048,-1.176154 -6.3227,-1.998367 -3.59616,-1.48657 -7.10316,-3.176899 -10.63724,-4.803041 -5.62407,-2.614834 -11.27221,-5.24623 -17.21374,-7.068924 -5.60641,-1.674657 -11.3957,-2.722306 -17.22446,-3.207975 -2.31341,-0.176216 -4.63432,-0.248447 -6.9543,-0.215571 z m 3.47184,18.519769 c 1.11398,0.01 2.24727,0.03695 3.32439,0.09994 0.46191,0.02085 0.90738,0.059 1.39781,0.09307 7.86892,0.615787 15.65018,2.635268 22.747,6.108441 2.91589,1.433448 5.70538,3.129637 8.2932,5.096101 0.43138,0.329884 0.93535,0.729466 1.38312,1.101428 0.79733,0.662771 1.56909,1.356229 2.31521,2.07613 0.31903,0.315408 0.71651,0.707741 1.05308,1.066136 1.11894,1.197638 2.21018,2.438506 3.09328,3.823367 0.90369,1.471088 1.41168,3.140135 1.76753,4.818038 0.48064,1.951827 1.39628,3.926076 3.08952,5.106859 2.01976,1.390111 4.96485,1.111086 6.73167,-0.573257 1.85891,-1.49881 2.91366,-3.695287 4.4024,-5.514434 0.1585,-0.184856 0.406,-0.477281 0.61195,-0.693369 2.44765,-2.627164 5.64265,-4.40617 8.90789,-5.816909 2.24542,-0.97651 4.65207,-1.775256 6.99618,-2.297441 0.84051,-0.188194 1.76874,-0.354848 2.56833,-0.475311 2.54305,-0.374502 5.12679,-0.455079 7.68929,-0.258734 0.42052,0.03341 0.92583,0.07786 1.37717,0.128127 0.26298,0.03177 0.66206,0.07714 0.97705,0.123498 3.2999,0.472276 6.51176,1.208107 9.72655,2.113989 6.31476,1.801954 12.41756,4.371945 18.06966,7.720897 0.55986,0.33614 1.20024,0.722238 1.78176,1.093174 3.89428,2.486111 7.58993,5.33741 10.72827,8.741904 4.02936,4.390131 6.80778,9.761594 8.98615,15.266671 1.67534,4.276832 3.01441,8.675372 4.61316,12.980262 1.79348,4.95646 3.41268,10.00999 5.1996,14.98336 2.64741,7.48016 5.42679,14.91925 7.75169,22.50907 0.40131,1.33398 0.82101,2.73484 1.18906,4.0786 1.1732,4.22644 2.14376,8.51074 2.85729,12.83916 0.55515,3.43079 0.99743,6.95391 1.27204,10.44667 0.0497,0.61436 0.0915,1.29536 0.13901,1.94696 0.0322,0.5885 0.0745,1.27522 0.10289,1.90273 0.3682,8.65505 0.003,17.31692 -0.18446,25.97166 -0.073,2.61755 -0.17851,5.28145 -0.31902,7.89025 -0.27534,5.2083 -0.81705,10.45846 -1.11702,15.69153 -0.33958,6.05535 -0.0303,12.15371 1.04647,18.12551 1.27765,7.18658 3.47973,14.17079 5.36719,21.19839 1.09338,4.00648 2.2912,7.98392 3.57854,11.93257 2.55734,7.8948 5.2302,15.75284 7.76048,23.65709 2.22967,6.90555 4.40263,13.8508 6.42039,20.79518 1.55158,5.32574 2.99874,10.65523 4.25211,16.0577 0.43562,1.88476 0.86461,3.88497 1.23499,5.79467 0.42234,2.20073 0.79711,4.44241 1.07979,6.63488 0.35192,2.69512 0.57784,5.4073 0.65279,8.12456 0.0148,0.68443 0.03,1.45893 0.0245,2.17931 0,0.84555 -0.0229,1.6909 -0.0561,2.53577 -0.0241,0.43168 -0.0462,0.97815 -0.0843,1.45322 -0.10407,1.38682 -0.29203,2.76649 -0.54394,4.13396 -0.0523,0.25904 -0.11076,0.58564 -0.17188,0.87319 -0.62777,2.98178 -1.4467,5.92112 -2.34835,8.83074 -1.25421,4.01918 -2.93432,7.89437 -5.20831,11.4482 -1.99203,3.12243 -4.37994,5.99301 -7.09702,8.51058 -0.53274,0.49046 -1.13757,1.03705 -1.715,1.53032 -1.72458,1.4818 -3.53983,2.85604 -5.41218,4.14531 -0.59517,0.40417 -1.26579,0.85631 -1.90179,1.26235 -4.19266,2.71399 -8.66345,4.95768 -13.12637,7.18539 -9.50904,4.70254 -19.19765,9.03099 -28.95009,13.20164 -13.12253,5.6691 -26.08501,11.6948 -39.03249,17.74913 -7.23175,3.3613 -14.45988,6.71644 -21.82309,9.76481 -0.95834,0.39324 -1.85522,0.75442 -2.82713,1.12273 -2.0524,0.78335 -4.18729,1.51171 -6.27398,2.07999 -1.13936,0.30997 -2.28949,0.58135 -3.44951,0.80182 2.11797,-2.58646 3.67005,-5.57915 4.96486,-8.64639 1.99472,-4.78429 3.23883,-9.85659 3.98782,-14.9773 0.85894,-6.0763 0.83912,-12.29987 -0.32438,-18.33497 -0.59042,-3.2403 -1.33062,-6.46007 -2.34454,-9.59549 -0.63761,-1.92865 -1.51146,-3.91135 -3.17305,-5.17473 -1.39518,-1.09026 -3.3234,-1.567 -5.02702,-0.98222 -2.14611,0.70531 -3.70696,2.90992 -3.58253,5.17808 0.0343,1.48365 0.38657,2.93435 0.54444,4.40605 0.19701,1.43081 0.35246,2.85233 0.47531,4.27032 0.22958,2.64729 0.32911,5.36767 0.27649,8.05301 -0.0457,2.489 -0.23674,5.01603 -0.56374,7.52223 -0.0835,0.62575 -0.16617,1.18484 -0.26204,1.80867 -0.10212,0.64245 -0.22804,1.37575 -0.35677,2.05065 -1.10278,5.94005 -3.04111,11.69319 -5.3792,17.25358 -0.62901,1.517 -1.33684,3.0725 -1.95176,4.62323 -0.40427,1.08194 -0.87228,2.20364 -0.74387,3.38433 -1.55822,-0.0592 -3.08519,-0.43771 -4.53391,-1.00217 -3.03739,-1.09948 -6.04309,-2.28349 -9.05321,-3.45485 -6.58578,-2.59006 -13.07539,-5.47076 -19.21083,-9.01186 -4.56753,-2.60117 -8.95578,-5.37144 -13.35437,-8.26431 -1.3671,-0.90269 -2.73179,-1.80917 -4.09011,-2.72508 0.48509,-9.19203 0.85581,-18.39314 0.8546,-27.59943 -0.004,-2.74256 -0.009,-5.48958 -0.20735,-8.2258 -0.20993,-2.05668 -0.82723,-4.06502 -1.79486,-5.89094 -1.33542,-2.81156 -3.28932,-5.38369 -5.88348,-7.14296 -3.14105,-2.2696 -6.75724,-3.73473 -10.30424,-5.23524 -3.23924,-1.33237 -6.51191,-2.58217 -9.79377,-3.80512 6.01384,0.0457 12.03341,0.0282 18.03873,-0.3245 1.83606,-0.117 3.67763,-0.26952 5.47122,-0.69967 2.44509,-0.57495 4.85838,-1.27901 7.26105,-2.00919 5.26181,-1.63106 10.43746,-3.53371 15.5346,-5.62091 2.73825,-1.15148 5.43558,-2.39996 8.0832,-3.7468 3.10623,1.25504 6.26979,2.36916 9.49004,3.29466 7.02226,2.12718 14.11449,4.02382 21.2559,5.70666 3.60134,0.76972 7.29915,0.83938 10.96442,0.99547 6.43307,0.20509 12.87039,0.2678 19.30633,0.33821 4.54478,0.0279 9.09369,0.0772 13.63459,-0.14356 3.68455,-0.19141 7.36825,-0.67321 10.92145,-1.69089 3.08185,-0.85432 6.10836,-1.89431 9.12796,-2.94425 4.1011,-1.45303 8.14385,-3.17184 11.77409,-5.59722 4.79143,-3.17226 8.76643,-7.47793 11.861,-12.3 2.60516,-4.04303 4.72244,-8.38263 6.56004,-12.82155 1.60684,-3.87538 1.78141,-8.136 2.99232,-12.12497 1.80809,-6.54703 3.5948,-13.11064 4.78021,-19.80476 1.94233,-11.11294 3.72442,-22.26087 4.92962,-33.48074 0.50862,-4.83712 0.96186,-9.68349 1.1881,-14.54296 0.26774,-5.76845 0.18264,-11.54984 -0.17218,-17.31262 -0.79319,-13.54819 -2.91561,-27.02238 -6.38636,-40.14372 -0.88475,-2.96343 -1.79192,-5.95279 -3.26167,-8.68749 -1.06413,-1.78414 -3.16666,-3.00735 -5.26928,-2.71979 -2.41007,0.25968 -4.49161,2.42608 -4.52563,4.87305 -0.11713,1.33773 0.01,2.69641 0.0274,4.00711 0.20632,5.51229 0.5864,11.05188 0.77431,16.54277 0.3863,12.31359 0.2895,24.63823 -0.10723,36.95023 -0.14307,4.12021 -0.26421,8.26351 -0.52018,12.38705 -0.23035,2.8368 -0.67393,5.65129 -1.1097,8.46238 -1.4207,8.76923 -3.05775,17.49253 -4.80895,26.20639 -0.93967,3.63864 -1.95881,7.25601 -2.9445,10.88232 -1.48593,5.37898 -2.98537,10.758 -4.74612,16.05472 -0.61072,1.79454 -1.28262,3.60277 -1.98852,5.30751 -1.97581,4.74942 -4.33848,9.41414 -7.69109,13.35201 -2.39384,2.8305 -5.34122,5.18242 -8.62285,6.90527 -1.86769,0.97424 -3.80698,1.8327 -5.82705,2.43797 -1.52724,0.42214 -3.12761,0.41968 -4.69893,0.49838 -3.98888,0.13728 -7.98043,0.18474 -11.97122,0.23688 -5.08159,0.0524 -10.16482,0.0841 -15.24521,-0.0637 -0.83791,-0.0295 -1.76017,-0.0647 -2.63063,-0.10761 -3.46096,-0.16737 -6.94614,-0.44653 -10.38488,-1.03859 -0.81823,-0.13528 -1.63447,-0.28937 -2.41529,-0.44836 -4.00449,-0.81925 -8.00211,-2.02801 -11.78699,-3.64841 -1.39163,-0.60763 -2.82676,-1.30087 -4.10726,-2.0297 -2.46558,-1.42665 -4.85662,-3.14912 -6.48076,-5.53014 -0.0972,-1.54456 0.0315,-3.09851 0.11636,-4.64318 0.17385,-2.75305 0.18496,-5.51316 0.28067,-8.26954 0.11331,-4.28913 0.23966,-8.57559 0.48166,-12.86814 0.59109,-10.59901 1.58515,-21.23452 2.60151,-31.82538 1.6329,-16.92322 2.92614,-33.88483 3.55576,-50.87761 0.66948,-16.72754 1.24996,-33.45867 1.96822,-50.18422 0.21533,-4.66445 0.43531,-9.33226 0.75333,-13.97396 0.0699,-1.61691 0.55151,-3.19951 0.48416,-4.82355 -0.0642,-1.62421 -0.76175,-3.27521 -2.10293,-4.24728 -1.80565,-1.37075 -4.56073,-1.41336 -6.31075,0.078 -1.47463,1.11655 -2.17773,2.89709 -2.82588,4.56518 -2.09667,5.48332 -3.02798,11.30727 -4.07949,17.05588 -2.00329,11.51327 -3.42447,23.11852 -4.68989,34.73335 -1.64016,15.29647 -2.935,30.62802 -4.10789,45.96706 -0.85662,11.28143 -1.62529,22.56857 -2.38379,33.85707 -0.30699,4.36198 -0.6315,8.79173 -1.00435,13.13511 -0.31716,3.49056 -0.651,6.96699 -1.10465,10.45705 -0.5633,4.19193 -1.21282,8.43037 -2.5926,12.4612 -1.19278,3.48141 -2.99915,6.78746 -5.53669,9.47333 -2.05057,2.20756 -4.39595,4.19093 -6.80594,5.94494 -1.24686,0.9073 -2.54507,1.7868 -3.82665,2.58362 -3.23594,2.02601 -6.62664,3.8025 -10.12353,5.33382 -1.13508,0.48965 -2.37775,1.0068 -3.58432,1.4547 -2.41812,0.90815 -4.8433,1.6766 -7.36013,2.2697 -1.62702,0.39447 -3.29541,0.5936 -4.96648,0.66416 -0.43149,0.0189 -0.97615,0.0316 -1.45221,0.0301 -5.46861,-0.0214 -10.84531,-1.20715 -16.12929,-2.51189 -1.43114,-0.35502 -2.82638,-0.68844 -4.24312,-1.11738 -0.19493,-0.0603 -0.53409,-0.16826 -0.78447,-0.24716 -0.75613,-0.25567 -1.46965,-0.51266 -2.18071,-0.82415 -3.31482,-1.42348 -6.46343,-3.39052 -8.87461,-6.10382 -0.72183,-0.82996 -1.34385,-1.8084 -1.45102,-2.92867 -0.12378,-0.72314 -0.22453,-1.53585 -0.29565,-2.21048 -0.30237,-3.14811 -0.42438,-6.30989 -0.52573,-9.46985 -0.0177,-0.84226 -0.0401,-1.77064 -0.0595,-2.64603 -0.27871,-12.92179 -0.27973,-25.84732 -0.29636,-38.77149 0.0214,-9.3648 0.26753,-18.72707 0.45891,-28.08944 0.69922,-31.68503 1.64071,-63.42842 -0.47663,-95.08141 -0.12553,-1.57608 -0.16815,-3.16266 -0.38689,-4.72896 -0.401,-1.61476 -1.3434,-3.16885 -2.79566,-4.03478 -1.47394,-0.87133 -3.37269,-0.941 -4.90608,-0.17916 -1.70986,0.80772 -2.83243,2.46963 -3.51981,4.17674 -0.67383,1.72361 -0.99637,3.55628 -1.37862,5.35974 -0.91168,4.71347 -1.48423,9.4846 -1.99857,14.25538 -1.03654,10.19214 -1.28836,20.44113 -1.5697,30.67572 -0.59703,26.28457 -0.63029,52.57716 -0.90646,78.86602 -0.10752,10.15952 -0.21894,20.31973 -0.49209,30.47638 -0.12085,4.13631 -0.28635,8.31239 -0.60533,12.45495 -0.22029,2.41139 -0.45553,4.85872 -1.31794,7.14128 -1.28335,3.48538 -2.81744,6.98289 -5.35569,9.752 -2.14949,2.35086 -5.09774,3.83655 -8.15448,4.62095 -0.87789,0.23936 -1.80377,0.43833 -2.65736,0.58895 -2.10491,0.37707 -4.26609,0.5661 -6.36988,0.68019 -6.7877,0.35503 -13.68075,-0.37364 -20.2372,-2.24073 -4.24462,-1.245 -8.45186,-2.88128 -12.04134,-5.51617 -2.88597,-2.15376 -5.52227,-4.67815 -7.62831,-7.60748 -0.85769,-1.25362 -1.71373,-2.60799 -1.85889,-4.15717 -0.0648,-0.45076 -0.11702,-1.04362 -0.14998,-1.55718 -0.0555,-0.82085 -0.0802,-1.75791 -0.13026,-2.6296 -0.49884,-11.54822 -0.64945,-23.1161 -0.73664,-34.68057 -0.15233,-26.65888 0.0434,-53.31988 0.59179,-79.97356 0.10135,-4.44319 0.2159,-8.88607 0.3447,-13.32855 0.15443,-4.37873 0.30058,-8.83417 0.56221,-13.20649 0.11603,-2.3509 0.35455,-4.69265 0.62871,-7.02968 0.37002,-3.3391 0.75624,-6.70063 0.56319,-10.06469 -0.17089,-1.79884 -1.00385,-3.62545 -2.56585,-4.62168 -1.90486,-1.26365 -4.60648,-1.0381 -6.32633,0.44732 -1.27586,1.07379 -1.83119,2.71354 -2.35147,4.24185 -1.95796,6.37919 -3.55022,12.86858 -4.878416,19.40716 -1.096203,5.84632 -1.424178,11.79763 -1.783914,17.72428 -0.605761,10.97476 -0.945966,21.96334 -1.288598,32.94854 -0.723201,24.0641 -1.204615,48.13459 -1.867075,72.20031 -0.145489,4.87882 -0.316963,9.75967 -0.567063,14.64205 -0.119321,2.11121 -0.228871,4.27345 -0.413314,6.39976 -0.04862,0.49693 -0.100779,1.10151 -0.162755,1.63918 -0.210967,1.68581 -0.374751,3.41031 -1.001966,5.0036 -0.367966,0.9066 -1.037866,1.72494 -1.977294,2.06905 -1.42387,0.56737 -2.985505,0.40305 -4.48247,0.44159 -3.073132,3.8e-4 -6.144509,-0.1185 -9.216406,-0.19112 -2.692791,-0.0927 -5.442018,-0.15349 -8.138975,-0.4778 -0.32311,-0.0427 -0.577503,-0.08 -0.918658,-0.14339 -1.837027,-0.3151 -3.579901,-1.00537 -5.258152,-1.79738 -2.790418,-1.29703 -5.577168,-2.70071 -7.927927,-4.71623 -1.956605,-1.62856 -3.613621,-3.61235 -4.854949,-5.83584 -2.119716,-3.68721 -3.344174,-7.80172 -4.349108,-11.91023 -1.002897,-4.21121 -1.745174,-8.49067 -2.38895,-12.74029 -1.021898,-6.91444 -1.699315,-13.96153 -2.072545,-20.93686 -0.125706,-2.31381 -0.21936,-4.62311 -0.276592,-6.92152 -0.204771,-7.90922 -0.0015,-15.79103 0.423821,-23.6843 0.714116,-13.27516 1.993908,-26.56597 2.933902,-39.85139 0.877049,-12.31079 1.475911,-24.62641 2.751398,-36.89698 0.618897,-6.04426 1.502482,-12.10305 3.003197,-18.01391 0.530476,-2.15655 1.124718,-4.34985 1.730786,-6.45287 1.400531,-4.73806 2.97872,-9.43048 4.893056,-13.98742 1.318267,-3.04547 2.673023,-6.15491 4.882041,-8.67722 1.934583,-2.33968 4.027827,-4.54542 6.225936,-6.63848 0.71815,-0.67837 1.522323,-1.42081 2.263405,-2.07884 2.425702,-2.17062 4.972586,-4.22653 7.778136,-5.88995 5.485082,-3.32948 11.469544,-5.87551 17.727322,-7.32406 0.472305,-0.10814 0.872087,-0.19083 1.349928,-0.28909 0.554219,-0.11143 1.207635,-0.23127 1.803606,-0.32536 0.728175,-0.11878 1.47874,-0.22318 2.172383,-0.29848 0.51934,-0.0615 1.06489,-0.10941 1.62239,-0.15166 2.13238,-0.13085 4.31566,-0.24035 6.40572,0.28958 1.15124,0.28344 2.20547,0.91682 2.97952,1.81706 1.66155,1.84132 2.40912,4.25798 3.64692,6.36476 0.86467,1.44589 2.14556,2.79578 3.8443,3.18008 2.12889,0.52151 4.60616,-0.3809 5.70094,-2.32633 0.77244,-1.31288 1.00526,-2.84269 1.45786,-4.27733 1.16266,-4.17917 2.32168,-8.34161 3.84934,-12.39419 2.36542,-6.29582 5.35185,-12.426925 9.51561,-17.741882 3.46176,-4.428571 7.73769,-8.283887 12.72687,-10.914574 0.17027,-0.08871 0.43756,-0.229082 0.62585,-0.321314 1.4556,-0.73656 3.04694,-1.40932 4.62285,-1.966526 1.55697,-0.554076 3.22895,-1.039994 4.87175,-1.426158 1.83003,-0.407909 3.67146,-0.831601 5.55076,-0.919249 0.18469,-0.0078 0.51816,-0.0164 0.76429,-0.01158 1.67206,0.06341 3.336,0.270405 4.99807,0.457311 5.02307,0.637575 10.02935,1.40122 15.0298,2.195345 4.66066,0.753485 9.34929,1.557944 14.00245,2.433893 0.89574,0.174612 1.79089,0.352814 2.68138,0.552712 -0.10793,2.491153 -0.35158,4.97284 -0.59282,7.45371 -0.14478,1.668645 -0.28679,3.346522 -0.21439,5.021838 0.17502,2.053016 1.60523,3.986264 3.59935,4.596284 2.20724,0.734244 4.81136,-0.137381 6.16329,-2.023459 1.61378,-2.003709 2.40286,-4.497595 3.23171,-6.893431 0.55471,-1.721247 1.28286,-3.434712 2.05797,-5.098769 0.32522,-0.706805 0.63426,-1.389774 0.96228,-2.06718 0.47097,-0.989051 0.95332,-1.968394 1.43984,-2.919793 1.55336,-3.037731 3.19176,-6.035529 4.98862,-8.93667 0.36331,-0.580118 0.7465,-1.161354 1.1113,-1.693505 0.43698,-0.638715 0.8834,-1.239037 1.34102,-1.831646 2.62567,-3.387442 5.77948,-6.353068 9.26296,-8.84471 0.19801,-0.135975 0.4785,-0.340324 0.68204,-0.478251 5.97372,-4.113188 12.81528,-6.882403 19.87876,-8.456601 2.67881,-0.591943 5.45428,-0.960935 8.1612,-1.131821 1.25852,-0.07823 2.51944,-0.108522 3.78017,-0.119034 z m -74.1948,328.447317 c -2.32148,2.4429 -3.81101,5.53362 -4.94977,8.67159 -1.29635,3.65472 -2.2049,7.43383 -3.0024,11.22451 -0.18915,-0.88005 -0.32449,-1.86772 -0.39678,-2.7039 -0.37984,-4.42809 0.59907,-9.02264 3.06337,-12.75233 0.83249,-1.24926 1.78517,-2.44411 2.95458,-3.39405 0.73152,-0.55232 1.57922,-0.9428 2.46242,-1.18139 -0.0438,0.0452 -0.0876,0.0904 -0.13142,0.13557 z m 12.79454,9.56078 c 1.9961,0.37731 3.90492,1.095 5.83327,1.71616 6.37089,2.16138 12.63723,4.62182 18.83558,7.23409 1.57886,0.674 3.13885,1.35807 4.67721,2.07573 1.08555,0.52289 2.19204,1.01358 3.23627,1.61436 0.52436,0.32185 0.55155,0.98729 0.7159,1.51731 0.50576,2.47572 0.54785,5.017 0.45877,7.53389 -0.0596,1.68974 -0.14569,3.49471 -0.26347,5.18519 -0.35335,5.22726 -0.87256,10.44651 -1.66175,15.62681 -0.0643,0.36657 -0.14324,0.85485 -0.21603,1.26783 0.0251,0.37826 -0.39366,0.0467 -0.60746,0.0429 -1.88917,-0.55887 -3.75938,-1.19118 -5.60829,-1.8046 -4.12039,-1.38672 -8.19698,-2.90084 -12.24505,-4.48567 -4.09366,-1.61561 -8.21002,-3.31849 -12.23238,-5.15412 -2.5006,-1.14165 -5.04659,-2.34323 -7.49042,-3.66207 -0.85902,-0.46498 -1.69057,-0.94123 -2.51348,-1.49517 -0.085,-2.99651 0.23654,-5.99203 0.72661,-8.94478 0.39528,-2.28622 0.91134,-4.55125 1.54083,-6.7843 0.10087,-0.33697 0.23244,-0.79548 0.34635,-1.17877 0.78014,-2.52785 1.69953,-5.03993 3.06392,-7.31662 0.79392,-1.25841 1.83587,-2.50182 3.29863,-2.97158 0.035,-0.005 0.07,-0.0113 0.10499,-0.0166 z" />
  </g>
</svg>
